<svg version="1.1" xmlns="http://www.w3.org/2000/svg" xmlns:xlink="http://www.w3.org/1999/xlink" width="48px" height="48px" viewBox="0,0,256,256"><defs><clipPath id="clip-1"><path d="M0,256v-256h256v256zM216.95086,92.49371l-135.03086,-80.94171c-6.89829,-4.56686 -14.64686,-6.98057 -22.49143,-6.98057c-22.68343,0 -41.14286,18.45943 -41.14286,41.14286c0,0.26057 0,0.50743 0.01371,0.768l-0.01371,81.51771c0,0.01371 0,82.24457 0,82.25829c0,0 0,0.01371 0,0.02743c0,22.68343 18.45943,41.14286 41.14286,41.14286c7.84457,0 15.59314,-2.41371 22.49143,-6.98057l135.03086,-80.928c12.82286,-7.37829 20.76343,-20.928 20.76343,-35.52c0,-14.592 -7.94057,-28.14171 -20.76343,-35.50629z" id="overlayBgMask" fill="none"></path></clipPath></defs><g fill-opacity="0.50196" fill="#292929" fill-rule="nonzero" stroke="none" stroke-width="1" stroke-linecap="butt" stroke-linejoin="miter" stroke-miterlimit="10" stroke-dasharray="" stroke-dashoffset="0" font-family="none" font-weight="none" font-size="none" text-anchor="none" style="mix-blend-mode: normal"><path d="M0,256v-256h256v256z" id="bgRectangle"></path></g><g clip-path="url(#clip-1)" fill="none" fill-rule="nonzero" stroke="none" stroke-width="1" stroke-linecap="butt" stroke-linejoin="miter" stroke-miterlimit="10" stroke-dasharray="" stroke-dashoffset="0" font-family="none" font-weight="none" font-size="none" text-anchor="none" style="mix-blend-mode: normal"><g transform="translate(-2.66667,0) scale(5.33333,5.33333)" fill-opacity="0" fill="#e1e3e6"><path d="M19,24c-4.97056,0 -9,4.02944 -9,9c0,4.97056 4.02944,9 9,9c4.97056,0 9,-4.02944 9,-9c0,-4.97056 -4.02944,-9 -9,-9z"></path><path d="M24,6v27h4v-19l11,3v-7z"></path></g></g><g fill="none" fill-rule="nonzero" stroke="none" stroke-width="none" stroke-linecap="butt" stroke-linejoin="miter" stroke-miterlimit="10" stroke-dasharray="" stroke-dashoffset="0" font-family="none" font-weight="none" font-size="none" text-anchor="none" style="mix-blend-mode: normal"><g transform="translate(45.71429,32) scale(13.71429,13.71429)" id="overlay" fill="#e1e3e6" stroke="none" stroke-width="1"><path d="M12,7c0,-0.376 -0.216,-0.691 -0.522,-0.862l-9.915,-5.942c-0.162,-0.114 -0.349,-0.196 -0.563,-0.196c-0.552,0 -1,0.448 -1,1c0,0.001 0.001,0.003 0.001,0.004h-0.001v5.996v5.995h0.001c0,0.002 -0.001,0.004 -0.001,0.005c0,0.552 0.448,1 1,1c0.214,0 0.401,-0.082 0.563,-0.196l9.914,-5.942c0.307,-0.171 0.523,-0.486 0.523,-0.862z"></path></g></g></svg>