<svg version="1.1" xmlns="http://www.w3.org/2000/svg" xmlns:xlink="http://www.w3.org/1999/xlink" width="48px" height="48px" viewBox="0,0,255.99609,255.99609"><defs><clipPath id="clip-1"><path d="M-383.99414,639.99023v-1023.98437h1023.98438v1023.98438zM246.60114,85.99162l-180.04114,-107.92229c-9.19771,-6.08914 -19.52914,-9.30743 -29.98857,-9.30743c-30.24457,0 -54.85714,24.61257 -54.85714,54.85714c0,0.34743 0,0.67657 0.01829,1.024l-0.01829,108.69029c0,0.01829 0,109.65943 0,109.67771c0,0 0,0.01829 0,0.03657c0,30.24457 24.61257,54.85714 54.85714,54.85714c10.45943,0 20.79086,-3.21829 29.98857,-9.30743l180.04114,-107.904c17.09714,-9.83771 27.68457,-27.904 27.68457,-47.36c0,-19.456 -10.58743,-37.52229 -27.68457,-47.34171z" id="overlayBgMask" fill="none"></path></clipPath></defs><g transform="translate(80.63877,80.63877) scale(0.37,0.37)"><g fill-opacity="0.50196" fill="#292929" fill-rule="nonzero" stroke="none" stroke-width="1" stroke-linecap="butt" stroke-linejoin="miter" stroke-miterlimit="10" stroke-dasharray="" stroke-dashoffset="0" font-family="none" font-weight="none" font-size="none" text-anchor="none" style="mix-blend-mode: normal"><path d="M-217.94262,473.93871v-691.88133h691.88133v691.88133z" id="bgRectangle"></path></g><g clip-path="url(#clip-1)" fill="none" fill-rule="nonzero" stroke="none" stroke-width="1" stroke-linecap="butt" stroke-linejoin="miter" stroke-miterlimit="10" stroke-dasharray="" stroke-dashoffset="0" font-family="none" font-weight="none" font-size="none" text-anchor="none" style="mix-blend-mode: normal"><g transform="translate(-25.6,13.86667) scale(5.33333,5.33333)"><path d="M24,4c-11.04569,0 -20,8.95431 -20,20c0,11.04569 8.95431,20 20,20c11.04569,0 20,-8.95431 20,-20c0,-11.04569 -8.95431,-20 -20,-20z" fill="#00acc1"></path><path d="M24,8c-8.83656,0 -16,7.16344 -16,16c0,8.83656 7.16344,16 16,16c8.83656,0 16,-7.16344 16,-16c0,-8.83656 -7.16344,-16 -16,-16z" fill="#e0f7fa"></path></g></g><g fill="none" fill-rule="nonzero" stroke="none" stroke-width="none" stroke-linecap="butt" stroke-linejoin="miter" stroke-miterlimit="10" stroke-dasharray="none" stroke-dashoffset="0" font-family="none" font-weight="none" font-size="none" text-anchor="none" style="mix-blend-mode: normal"><g transform="translate(18.28571,5.33333) scale(18.28571,18.28571)" id="overlay" fill="#e1e3e6" stroke="none" stroke-width="1" stroke-dasharray=""><path d="M12,7c0,-0.376 -0.216,-0.691 -0.522,-0.862l-9.915,-5.942c-0.162,-0.114 -0.349,-0.196 -0.563,-0.196c-0.552,0 -1,0.448 -1,1c0,0.001 0.001,0.003 0.001,0.004h-0.001v5.996v5.995h0.001c0,0.002 -0.001,0.004 -0.001,0.005c0,0.552 0.448,1 1,1c0.214,0 0.401,-0.082 0.563,-0.196l9.914,-5.942c0.307,-0.171 0.523,-0.486 0.523,-0.862z"></path></g></g></g></svg>